# MagicaVoxel @ Ephtracy

# group
o 

# material
mtllib flat_3.mtl
usemtl palette

# normals
vn -1 0 0
vn 1 0 0
vn 0 0 1
vn 0 0 -1
vn 0 -1 0
vn 0 1 0

# texcoords
vt 0.970703 0.5
vt 0.974609 0.5
vt 0.978516 0.5
vt 0.982422 0.5
vt 0.986328 0.5
vt 0.990234 0.5

# verts
v -1.8 0.9 1.8
v -1.8 0.9 -1.8
v -1.8 1.1 1.8
v -1.8 1.1 -1.8
v -1.7 0 0.1
v -1.7 0 -0.0999999
v -1.7 0.2 0.7
v -1.7 0.2 0.4
v -1.7 0.2 -0.4
v -1.7 0.2 -0.7
v -1.7 0.3 0.7
v -1.7 0.3 0.4
v -1.7 0.3 -0.4
v -1.7 0.3 -0.7
v -1.7 0.9 0.1
v -1.7 0.9 -0.0999999
v -1.6 0 1.7
v -1.6 0 1.6
v -1.6 0 0.1
v -1.6 0 -0.0999999
v -1.6 0 -1.6
v -1.6 0.2 1.6
v -1.6 0.2 0.7
v -1.6 0.2 0.4
v -1.6 0.2 0.1
v -1.6 0.2 -0.0999999
v -1.6 0.2 -0.4
v -1.6 0.2 -0.7
v -1.6 0.2 -1.6
v -1.6 0.3 0.7
v -1.6 0.3 0.4
v -1.6 0.3 -0.4
v -1.6 0.3 -0.7
v -1.6 0.8 1.6
v -1.6 0.8 0.7
v -1.6 0.8 0.4
v -1.6 0.8 0.1
v -1.6 0.8 -0.0999999
v -1.6 0.8 -0.4
v -1.6 0.8 -0.7
v -1.6 0.8 -1.6
v -1.6 0.9 1.7
v -1.6 0.9 1.6
v -1.6 0.9 0.1
v -1.6 0.9 -0.0999999
v -1.6 0.9 -1.6
v -1.5 0.3 0.7
v -1.5 0.3 0.4
v -1.5 0.3 -0.4
v -1.5 0.3 -0.7
v -1.5 0.8 0.7
v -1.5 0.8 0.4
v -1.5 0.8 -0.4
v -1.5 0.8 -0.7
v -1.3 0.2 -1.6
v -1.3 0.2 -1.7
v -1.3 0.3 -1.6
v -1.3 0.3 -1.7
v -1 0 1.7
v -1 0 1.6
v -1 0.2 1.6
v -1 0.3 -1.5
v -1 0.3 -1.6
v -1 0.8 1.6
v -1 0.8 -1.5
v -1 0.8 -1.6
v -1 0.9 1.7
v -1 0.9 1.6
v -0.1 0 -1.6
v -0.1 0 -1.7
v -0.1 0.2 -1.6
v -0.1 0.8 -1.6
v -0.1 0.9 -1.6
v -0.1 0.9 -1.7
v 0.4 0.2 1.7
v 0.4 0.2 1.6
v 0.4 0.3 1.7
v 0.4 0.3 1.6
v 0.7 0.3 1.6
v 0.7 0.3 1.5
v 0.7 0.8 1.6
v 0.7 0.8 1.5
v 1 0.2 -1.6
v 1 0.2 -1.7
v 1 0.3 -1.6
v 1 0.3 -1.7
v 1.3 0.3 -1.5
v 1.3 0.3 -1.6
v 1.3 0.8 -1.5
v 1.3 0.8 -1.6
v -1.5 0 1.7
v -1.5 0 1.6
v -1.5 0.2 1.6
v -1.5 0.8 1.6
v -1.5 0.9 1.7
v -1.5 0.9 1.6
v -1.3 0.3 -1.5
v -1.3 0.3 -1.6
v -1.3 0.8 -1.5
v -1.3 0.8 -1.6
v -1 0.2 -1.6
v -1 0.2 -1.7
v -1 0.3 -1.6
v -1 0.3 -1.7
v -0.9 0 1.7
v -0.9 0 1.6
v -0.9 0.2 1.6
v -0.9 0.8 1.6
v -0.9 0.9 1.7
v -0.9 0.9 1.6
v 0.0999999 0 -1.6
v 0.0999999 0 -1.7
v 0.0999999 0.2 -1.6
v 0.0999999 0.8 -1.6
v 0.0999999 0.9 -1.6
v 0.0999999 0.9 -1.7
v 0.4 0.3 1.6
v 0.4 0.3 1.5
v 0.4 0.8 1.6
v 0.4 0.8 1.5
v 0.7 0.2 1.7
v 0.7 0.2 1.6
v 0.7 0.3 1.7
v 0.7 0.3 1.6
v 1 0.3 -1.5
v 1 0.3 -1.6
v 1 0.8 -1.5
v 1 0.8 -1.6
v 1.3 0.2 -1.6
v 1.3 0.2 -1.7
v 1.3 0.3 -1.6
v 1.3 0.3 -1.7
v 1.5 0.3 -0.4
v 1.5 0.3 -0.7
v 1.5 0.8 -0.4
v 1.5 0.8 -0.7
v 1.6 0 1.6
v 1.6 0 0.1
v 1.6 0 -0.0999999
v 1.6 0 -1.6
v 1.6 0.2 1.6
v 1.6 0.2 0.1
v 1.6 0.2 -0.0999999
v 1.6 0.2 -0.4
v 1.6 0.2 -0.7
v 1.6 0.2 -1.6
v 1.6 0.3 -0.4
v 1.6 0.3 -0.7
v 1.6 0.8 1.6
v 1.6 0.8 0.1
v 1.6 0.8 -0.0999999
v 1.6 0.8 -0.4
v 1.6 0.8 -0.7
v 1.6 0.8 -1.6
v 1.6 0.9 1.6
v 1.6 0.9 0.1
v 1.6 0.9 -0.0999999
v 1.6 0.9 -1.6
v 1.7 0 0.1
v 1.7 0 -0.0999999
v 1.7 0.2 -0.4
v 1.7 0.2 -0.7
v 1.7 0.3 -0.4
v 1.7 0.3 -0.7
v 1.7 0.9 0.1
v 1.7 0.9 -0.0999999
v 1.8 0.9 1.8
v 1.8 0.9 -1.8
v 1.8 1.1 1.8
v 1.8 1.1 -1.8
v -1.8 0.9 1.8
v -1.8 1.1 1.8
v 1.8 0.9 1.8
v 1.8 1.1 1.8
v -1.6 0 1.7
v -1.6 0.9 1.7
v -1.5 0 1.7
v -1.5 0.9 1.7
v -1 0 1.7
v -1 0.9 1.7
v -0.9 0 1.7
v -0.9 0.9 1.7
v 0.4 0.2 1.7
v 0.4 0.3 1.7
v 0.7 0.2 1.7
v 0.7 0.3 1.7
v -1.5 0 1.6
v -1.5 0.2 1.6
v -1.5 0.8 1.6
v -1.5 0.9 1.6
v -1 0 1.6
v -1 0.2 1.6
v -1 0.8 1.6
v -1 0.9 1.6
v -0.9 0 1.6
v -0.9 0.2 1.6
v -0.9 0.8 1.6
v -0.9 0.9 1.6
v 0.4 0.2 1.6
v 0.4 0.3 1.6
v 0.4 0.8 1.6
v 0.7 0.2 1.6
v 0.7 0.3 1.6
v 0.7 0.8 1.6
v 1.6 0 1.6
v 1.6 0.2 1.6
v 1.6 0.8 1.6
v 1.6 0.9 1.6
v 0.4 0.3 1.5
v 0.4 0.8 1.5
v 0.7 0.3 1.5
v 0.7 0.8 1.5
v -1.7 0.2 0.7
v -1.7 0.3 0.7
v -1.6 0.2 0.7
v -1.6 0.3 0.7
v -1.6 0.3 0.4
v -1.6 0.8 0.4
v -1.5 0.3 0.4
v -1.5 0.8 0.4
v -1.7 0 0.1
v -1.7 0.9 0.1
v -1.6 0 0.1
v -1.6 0.2 0.1
v -1.6 0.8 0.1
v -1.6 0.9 0.1
v 1.6 0 0.1
v 1.6 0.2 0.1
v 1.6 0.8 0.1
v 1.6 0.9 0.1
v 1.7 0 0.1
v 1.7 0.9 0.1
v -1.7 0.2 -0.4
v -1.7 0.3 -0.4
v -1.6 0.2 -0.4
v -1.6 0.3 -0.4
v 1.6 0.2 -0.4
v 1.6 0.3 -0.4
v 1.7 0.2 -0.4
v 1.7 0.3 -0.4
v -1.6 0.3 -0.7
v -1.6 0.8 -0.7
v -1.5 0.3 -0.7
v -1.5 0.8 -0.7
v 1.5 0.3 -0.7
v 1.5 0.8 -0.7
v 1.6 0.3 -0.7
v 1.6 0.8 -0.7
v -1.6 0.3 0.7
v -1.6 0.8 0.7
v -1.5 0.3 0.7
v -1.5 0.8 0.7
v -1.7 0.2 0.4
v -1.7 0.3 0.4
v -1.6 0.2 0.4
v -1.6 0.3 0.4
v -1.7 0 -0.0999999
v -1.7 0.9 -0.0999999
v -1.6 0 -0.0999999
v -1.6 0.2 -0.0999999
v -1.6 0.8 -0.0999999
v -1.6 0.9 -0.0999999
v 1.6 0 -0.0999999
v 1.6 0.2 -0.0999999
v 1.6 0.8 -0.0999999
v 1.6 0.9 -0.0999999
v 1.7 0 -0.0999999
v 1.7 0.9 -0.0999999
v -1.6 0.3 -0.4
v -1.6 0.8 -0.4
v -1.5 0.3 -0.4
v -1.5 0.8 -0.4
v 1.5 0.3 -0.4
v 1.5 0.8 -0.4
v 1.6 0.3 -0.4
v 1.6 0.8 -0.4
v -1.7 0.2 -0.7
v -1.7 0.3 -0.7
v -1.6 0.2 -0.7
v -1.6 0.3 -0.7
v 1.6 0.2 -0.7
v 1.6 0.3 -0.7
v 1.7 0.2 -0.7
v 1.7 0.3 -0.7
v -1.3 0.3 -1.5
v -1.3 0.8 -1.5
v -1 0.3 -1.5
v -1 0.8 -1.5
v 1 0.3 -1.5
v 1 0.8 -1.5
v 1.3 0.3 -1.5
v 1.3 0.8 -1.5
v -1.6 0 -1.6
v -1.6 0.2 -1.6
v -1.6 0.8 -1.6
v -1.6 0.9 -1.6
v -1.3 0.2 -1.6
v -1.3 0.3 -1.6
v -1.3 0.8 -1.6
v -1 0.2 -1.6
v -1 0.3 -1.6
v -1 0.8 -1.6
v -0.1 0 -1.6
v -0.1 0.2 -1.6
v -0.1 0.8 -1.6
v -0.1 0.9 -1.6
v 0.0999999 0 -1.6
v 0.0999999 0.2 -1.6
v 0.0999999 0.8 -1.6
v 0.0999999 0.9 -1.6
v 1 0.2 -1.6
v 1 0.3 -1.6
v 1 0.8 -1.6
v 1.3 0.2 -1.6
v 1.3 0.3 -1.6
v 1.3 0.8 -1.6
v 1.6 0 -1.6
v 1.6 0.2 -1.6
v 1.6 0.8 -1.6
v 1.6 0.9 -1.6
v -1.3 0.2 -1.7
v -1.3 0.3 -1.7
v -1 0.2 -1.7
v -1 0.3 -1.7
v -0.1 0 -1.7
v -0.1 0.9 -1.7
v 0.0999999 0 -1.7
v 0.0999999 0.9 -1.7
v 1 0.2 -1.7
v 1 0.3 -1.7
v 1.3 0.2 -1.7
v 1.3 0.3 -1.7
v -1.8 0.9 -1.8
v -1.8 1.1 -1.8
v 1.8 0.9 -1.8
v 1.8 1.1 -1.8
v -1.6 0 1.7
v -1.5 0 1.7
v -1 0 1.7
v -0.9 0 1.7
v -1.6 0 1.6
v -1.5 0 1.6
v -1 0 1.6
v -0.9 0 1.6
v 1.6 0 1.6
v -1.5 0 1.5
v 1.5 0 1.5
v -1.7 0 0.1
v -1.6 0 0.1
v 1.6 0 0.1
v 1.7 0 0.1
v -1.7 0 -0.0999999
v -1.6 0 -0.0999999
v 1.6 0 -0.0999999
v 1.7 0 -0.0999999
v -1.5 0 -1.5
v 1.5 0 -1.5
v -1.6 0 -1.6
v -0.1 0 -1.6
v 0.0999999 0 -1.6
v 1.6 0 -1.6
v -0.1 0 -1.7
v 0.0999999 0 -1.7
v 0.4 0.2 1.7
v 0.7 0.2 1.7
v 0.4 0.2 1.6
v 0.7 0.2 1.6
v -1.7 0.2 0.7
v -1.6 0.2 0.7
v -1.7 0.2 0.4
v -1.6 0.2 0.4
v -1.7 0.2 -0.4
v -1.6 0.2 -0.4
v 1.6 0.2 -0.4
v 1.7 0.2 -0.4
v -1.7 0.2 -0.7
v -1.6 0.2 -0.7
v 1.6 0.2 -0.7
v 1.7 0.2 -0.7
v -1.3 0.2 -1.6
v -1 0.2 -1.6
v 1 0.2 -1.6
v 1.3 0.2 -1.6
v -1.3 0.2 -1.7
v -1 0.2 -1.7
v 1 0.2 -1.7
v 1.3 0.2 -1.7
v 0.4 0.8 1.6
v 0.7 0.8 1.6
v 0.4 0.8 1.5
v 0.7 0.8 1.5
v -1.6 0.8 0.7
v -1.5 0.8 0.7
v -1.6 0.8 0.4
v -1.5 0.8 0.4
v -1.6 0.8 -0.4
v -1.5 0.8 -0.4
v 1.5 0.8 -0.4
v 1.6 0.8 -0.4
v -1.6 0.8 -0.7
v -1.5 0.8 -0.7
v 1.5 0.8 -0.7
v 1.6 0.8 -0.7
v -1.3 0.8 -1.5
v -1 0.8 -1.5
v 1 0.8 -1.5
v 1.3 0.8 -1.5
v -1.3 0.8 -1.6
v -1 0.8 -1.6
v 1 0.8 -1.6
v 1.3 0.8 -1.6
v -1.8 0.9 1.8
v 1.8 0.9 1.8
v -1.6 0.9 1.7
v -1.5 0.9 1.7
v -1 0.9 1.7
v -0.9 0.9 1.7
v -1.6 0.9 1.6
v -1.5 0.9 1.6
v -1 0.9 1.6
v -0.9 0.9 1.6
v 1.6 0.9 1.6
v -1.7 0.9 0.1
v -1.6 0.9 0.1
v 1.6 0.9 0.1
v 1.7 0.9 0.1
v -1.7 0.9 -0.0999999
v -1.6 0.9 -0.0999999
v 1.6 0.9 -0.0999999
v 1.7 0.9 -0.0999999
v -1.6 0.9 -1.6
v -0.1 0.9 -1.6
v 0.0999999 0.9 -1.6
v 1.6 0.9 -1.6
v -0.1 0.9 -1.7
v 0.0999999 0.9 -1.7
v -1.8 0.9 -1.8
v 1.8 0.9 -1.8
v 0.4 0.3 1.7
v 0.7 0.3 1.7
v 0.4 0.3 1.6
v 0.7 0.3 1.6
v 0.4 0.3 1.5
v 0.7 0.3 1.5
v -1.7 0.3 0.7
v -1.6 0.3 0.7
v -1.5 0.3 0.7
v -1.7 0.3 0.4
v -1.6 0.3 0.4
v -1.5 0.3 0.4
v -1.7 0.3 -0.4
v -1.6 0.3 -0.4
v -1.5 0.3 -0.4
v 1.5 0.3 -0.4
v 1.6 0.3 -0.4
v 1.7 0.3 -0.4
v -1.7 0.3 -0.7
v -1.6 0.3 -0.7
v -1.5 0.3 -0.7
v 1.5 0.3 -0.7
v 1.6 0.3 -0.7
v 1.7 0.3 -0.7
v -1.3 0.3 -1.5
v -1 0.3 -1.5
v 1 0.3 -1.5
v 1.3 0.3 -1.5
v -1.3 0.3 -1.6
v -1 0.3 -1.6
v 1 0.3 -1.6
v 1.3 0.3 -1.6
v -1.3 0.3 -1.7
v -1 0.3 -1.7
v 1 0.3 -1.7
v 1.3 0.3 -1.7
v -1.8 1.1 1.8
v 1.8 1.1 1.8
v -1.6 1.1 1.6
v 1.6 1.1 1.6
v -1.6 1.1 -1.6
v 1.6 1.1 -1.6
v -1.8 1.1 -1.8
v 1.8 1.1 -1.8

# faces
f 3/4/1 2/4/1 1/4/1
f 4/4/1 2/4/1 3/4/1
f 11/3/1 8/3/1 7/3/1
f 12/3/1 8/3/1 11/3/1
f 13/3/1 10/3/1 9/3/1
f 14/3/1 10/3/1 13/3/1
f 15/6/1 6/6/1 5/6/1
f 16/6/1 6/6/1 15/6/1
f 22/6/1 18/6/1 17/6/1
f 22/2/1 19/2/1 18/2/1
f 23/2/1 19/2/1 22/2/1
f 24/2/1 19/2/1 23/2/1
f 25/2/1 19/2/1 24/2/1
f 26/2/1 21/2/1 20/2/1
f 27/2/1 21/2/1 26/2/1
f 28/2/1 21/2/1 27/2/1
f 29/2/1 21/2/1 28/2/1
f 30/1/1 23/1/1 22/1/1
f 31/1/1 25/1/1 24/1/1
f 32/1/1 27/1/1 26/1/1
f 33/1/1 29/1/1 28/1/1
f 34/1/1 30/1/1 22/1/1
f 34/6/1 22/6/1 17/6/1
f 35/1/1 30/1/1 34/1/1
f 36/1/1 25/1/1 31/1/1
f 37/1/1 25/1/1 36/1/1
f 38/1/1 32/1/1 26/1/1
f 39/1/1 32/1/1 38/1/1
f 40/1/1 29/1/1 33/1/1
f 41/1/1 29/1/1 40/1/1
f 42/6/1 34/6/1 17/6/1
f 43/2/1 37/2/1 36/2/1
f 43/6/1 34/6/1 42/6/1
f 43/2/1 35/2/1 34/2/1
f 43/2/1 36/2/1 35/2/1
f 44/2/1 37/2/1 43/2/1
f 45/2/1 39/2/1 38/2/1
f 45/2/1 41/2/1 40/2/1
f 45/2/1 40/2/1 39/2/1
f 46/2/1 41/2/1 45/2/1
f 51/5/1 48/5/1 47/5/1
f 52/5/1 48/5/1 51/5/1
f 53/5/1 50/5/1 49/5/1
f 54/5/1 50/5/1 53/5/1
f 57/3/1 56/3/1 55/3/1
f 58/3/1 56/3/1 57/3/1
f 61/6/1 60/6/1 59/6/1
f 64/6/1 61/6/1 59/6/1
f 65/1/1 63/1/1 62/1/1
f 66/1/1 63/1/1 65/1/1
f 67/6/1 64/6/1 59/6/1
f 68/6/1 64/6/1 67/6/1
f 71/6/1 70/6/1 69/6/1
f 72/6/1 70/6/1 71/6/1
f 73/6/1 70/6/1 72/6/1
f 74/6/1 70/6/1 73/6/1
f 77/3/1 76/3/1 75/3/1
f 78/3/1 76/3/1 77/3/1
f 81/1/1 80/1/1 79/1/1
f 82/1/1 80/1/1 81/1/1
f 85/3/1 84/3/1 83/3/1
f 86/3/1 84/3/1 85/3/1
f 89/1/1 88/1/1 87/1/1
f 90/1/1 88/1/1 89/1/1
f 91/6/2 92/6/2 93/6/2
f 91/6/2 93/6/2 94/6/2
f 91/6/2 94/6/2 95/6/2
f 95/6/2 94/6/2 96/6/2
f 97/1/2 98/1/2 99/1/2
f 99/1/2 98/1/2 100/1/2
f 101/3/2 102/3/2 103/3/2
f 103/3/2 102/3/2 104/3/2
f 105/6/2 106/6/2 107/6/2
f 105/6/2 107/6/2 108/6/2
f 105/6/2 108/6/2 109/6/2
f 109/6/2 108/6/2 110/6/2
f 111/6/2 112/6/2 113/6/2
f 113/6/2 112/6/2 114/6/2
f 114/6/2 112/6/2 115/6/2
f 115/6/2 112/6/2 116/6/2
f 117/1/2 118/1/2 119/1/2
f 119/1/2 118/1/2 120/1/2
f 121/3/2 122/3/2 123/3/2
f 123/3/2 122/3/2 124/3/2
f 125/1/2 126/1/2 127/1/2
f 127/1/2 126/1/2 128/1/2
f 129/3/2 130/3/2 131/3/2
f 131/3/2 130/3/2 132/3/2
f 133/5/2 134/5/2 135/5/2
f 135/5/2 134/5/2 136/5/2
f 137/2/2 138/2/2 141/2/2
f 141/2/2 138/2/2 142/2/2
f 139/2/2 140/2/2 143/2/2
f 143/2/2 140/2/2 144/2/2
f 144/2/2 140/2/2 145/2/2
f 145/2/2 140/2/2 146/2/2
f 143/1/2 144/1/2 147/1/2
f 145/1/2 146/1/2 148/1/2
f 141/1/2 142/1/2 149/1/2
f 149/1/2 142/1/2 150/1/2
f 143/1/2 147/1/2 151/1/2
f 151/1/2 147/1/2 152/1/2
f 148/1/2 146/1/2 153/1/2
f 153/1/2 146/1/2 154/1/2
f 149/2/2 150/2/2 155/2/2
f 155/2/2 150/2/2 156/2/2
f 151/2/2 152/2/2 157/2/2
f 152/2/2 153/2/2 157/2/2
f 153/2/2 154/2/2 157/2/2
f 157/2/2 154/2/2 158/2/2
f 161/3/2 162/3/2 163/3/2
f 163/3/2 162/3/2 164/3/2
f 159/6/2 160/6/2 165/6/2
f 165/6/2 160/6/2 166/6/2
f 167/4/2 168/4/2 169/4/2
f 169/4/2 168/4/2 170/4/2
f 173/4/3 172/4/3 171/4/3
f 174/4/3 172/4/3 173/4/3
f 177/6/3 176/6/3 175/6/3
f 178/6/3 176/6/3 177/6/3
f 181/6/3 180/6/3 179/6/3
f 182/6/3 180/6/3 181/6/3
f 185/3/3 184/3/3 183/3/3
f 186/3/3 184/3/3 185/3/3
f 191/2/3 188/2/3 187/2/3
f 192/1/3 189/1/3 188/1/3
f 192/2/3 188/2/3 191/2/3
f 193/2/3 190/2/3 189/2/3
f 193/1/3 189/1/3 192/1/3
f 194/2/3 190/2/3 193/2/3
f 199/2/3 196/2/3 195/2/3
f 199/1/3 197/1/3 196/1/3
f 200/1/3 197/1/3 199/1/3
f 201/2/3 198/2/3 197/2/3
f 201/1/3 197/1/3 200/1/3
f 202/2/3 199/2/3 195/2/3
f 204/2/3 198/2/3 201/2/3
f 205/2/3 202/2/3 195/2/3
f 206/1/3 203/1/3 202/1/3
f 206/2/3 202/2/3 205/2/3
f 206/1/3 204/1/3 203/1/3
f 207/2/3 198/2/3 204/2/3
f 207/1/3 204/1/3 206/1/3
f 208/2/3 198/2/3 207/2/3
f 211/5/3 210/5/3 209/5/3
f 212/5/3 210/5/3 211/5/3
f 215/3/3 214/3/3 213/3/3
f 216/3/3 214/3/3 215/3/3
f 219/1/3 218/1/3 217/1/3
f 220/1/3 218/1/3 219/1/3
f 223/6/3 222/6/3 221/6/3
f 224/6/3 222/6/3 223/6/3
f 225/6/3 222/6/3 224/6/3
f 226/6/3 222/6/3 225/6/3
f 231/6/3 228/6/3 227/6/3
f 231/6/3 230/6/3 229/6/3
f 231/6/3 229/6/3 228/6/3
f 232/6/3 230/6/3 231/6/3
f 235/3/3 234/3/3 233/3/3
f 236/3/3 234/3/3 235/3/3
f 239/3/3 238/3/3 237/3/3
f 240/3/3 238/3/3 239/3/3
f 243/1/3 242/1/3 241/1/3
f 244/1/3 242/1/3 243/1/3
f 247/1/3 246/1/3 245/1/3
f 248/1/3 246/1/3 247/1/3
f 249/1/4 250/1/4 251/1/4
f 251/1/4 250/1/4 252/1/4
f 253/3/4 254/3/4 255/3/4
f 255/3/4 254/3/4 256/3/4
f 257/6/4 258/6/4 259/6/4
f 259/6/4 258/6/4 260/6/4
f 260/6/4 258/6/4 261/6/4
f 261/6/4 258/6/4 262/6/4
f 263/6/4 264/6/4 267/6/4
f 265/6/4 266/6/4 267/6/4
f 264/6/4 265/6/4 267/6/4
f 267/6/4 266/6/4 268/6/4
f 269/1/4 270/1/4 271/1/4
f 271/1/4 270/1/4 272/1/4
f 273/1/4 274/1/4 275/1/4
f 275/1/4 274/1/4 276/1/4
f 277/3/4 278/3/4 279/3/4
f 279/3/4 278/3/4 280/3/4
f 281/3/4 282/3/4 283/3/4
f 283/3/4 282/3/4 284/3/4
f 285/5/4 286/5/4 287/5/4
f 287/5/4 286/5/4 288/5/4
f 289/5/4 290/5/4 291/5/4
f 291/5/4 290/5/4 292/5/4
f 293/2/4 294/2/4 297/2/4
f 294/1/4 295/1/4 297/1/4
f 297/1/4 295/1/4 298/1/4
f 295/2/4 296/2/4 299/2/4
f 298/1/4 295/1/4 299/1/4
f 293/2/4 297/2/4 300/2/4
f 299/2/4 296/2/4 302/2/4
f 293/2/4 300/2/4 303/2/4
f 300/1/4 301/1/4 304/1/4
f 303/2/4 300/2/4 304/2/4
f 301/1/4 302/1/4 304/1/4
f 302/2/4 296/2/4 305/2/4
f 304/1/4 302/1/4 305/1/4
f 305/2/4 296/2/4 306/2/4
f 307/2/4 308/2/4 311/2/4
f 308/1/4 309/1/4 311/1/4
f 311/1/4 309/1/4 312/1/4
f 309/2/4 310/2/4 313/2/4
f 312/1/4 309/1/4 313/1/4
f 307/2/4 311/2/4 314/2/4
f 313/2/4 310/2/4 316/2/4
f 307/2/4 314/2/4 317/2/4
f 314/1/4 315/1/4 318/1/4
f 317/2/4 314/2/4 318/2/4
f 315/1/4 316/1/4 318/1/4
f 316/2/4 310/2/4 319/2/4
f 318/1/4 316/1/4 319/1/4
f 319/2/4 310/2/4 320/2/4
f 321/3/4 322/3/4 323/3/4
f 323/3/4 322/3/4 324/3/4
f 325/6/4 326/6/4 327/6/4
f 327/6/4 326/6/4 328/6/4
f 329/3/4 330/3/4 331/3/4
f 331/3/4 330/3/4 332/3/4
f 333/4/4 334/4/4 335/4/4
f 335/4/4 334/4/4 336/4/4
f 341/6/5 338/6/5 337/6/5
f 342/6/5 338/6/5 341/6/5
f 343/6/5 340/6/5 339/6/5
f 344/6/5 340/6/5 343/6/5
f 346/2/5 342/2/5 341/2/5
f 346/2/5 345/2/5 344/2/5
f 346/2/5 344/2/5 343/2/5
f 346/2/5 343/2/5 342/2/5
f 347/2/5 345/2/5 346/2/5
f 349/2/5 346/2/5 341/2/5
f 350/2/5 345/2/5 347/2/5
f 352/6/5 349/6/5 348/6/5
f 353/2/5 346/2/5 349/2/5
f 353/6/5 349/6/5 352/6/5
f 354/6/5 351/6/5 350/6/5
f 354/2/5 350/2/5 347/2/5
f 355/6/5 351/6/5 354/6/5
f 356/2/5 346/2/5 353/2/5
f 356/1/5 347/1/5 346/1/5
f 357/2/5 354/2/5 347/2/5
f 357/1/5 347/1/5 356/1/5
f 358/2/5 356/2/5 353/2/5
f 358/2/5 357/2/5 356/2/5
f 359/2/5 357/2/5 358/2/5
f 360/2/5 357/2/5 359/2/5
f 361/2/5 354/2/5 357/2/5
f 361/2/5 357/2/5 360/2/5
f 362/6/5 360/6/5 359/6/5
f 363/6/5 360/6/5 362/6/5
f 366/3/5 365/3/5 364/3/5
f 367/3/5 365/3/5 366/3/5
f 370/3/5 369/3/5 368/3/5
f 371/3/5 369/3/5 370/3/5
f 376/3/5 373/3/5 372/3/5
f 377/3/5 373/3/5 376/3/5
f 378/3/5 375/3/5 374/3/5
f 379/3/5 375/3/5 378/3/5
f 384/3/5 381/3/5 380/3/5
f 385/3/5 381/3/5 384/3/5
f 386/3/5 383/3/5 382/3/5
f 387/3/5 383/3/5 386/3/5
f 390/2/5 389/2/5 388/2/5
f 391/2/5 389/2/5 390/2/5
f 394/2/5 393/2/5 392/2/5
f 395/2/5 393/2/5 394/2/5
f 400/2/5 397/2/5 396/2/5
f 401/2/5 397/2/5 400/2/5
f 402/2/5 399/2/5 398/2/5
f 403/2/5 399/2/5 402/2/5
f 408/2/5 405/2/5 404/2/5
f 409/2/5 405/2/5 408/2/5
f 410/2/5 407/2/5 406/2/5
f 411/2/5 407/2/5 410/2/5
f 414/4/5 413/4/5 412/4/5
f 415/4/5 413/4/5 414/4/5
f 416/4/5 413/4/5 415/4/5
f 417/4/5 413/4/5 416/4/5
f 418/4/5 414/4/5 412/4/5
f 419/4/5 416/4/5 415/4/5
f 420/4/5 416/4/5 419/4/5
f 421/4/5 413/4/5 417/4/5
f 422/4/5 413/4/5 421/4/5
f 423/4/5 418/4/5 412/4/5
f 424/4/5 418/4/5 423/4/5
f 425/4/5 413/4/5 422/4/5
f 426/4/5 413/4/5 425/4/5
f 427/4/5 423/4/5 412/4/5
f 430/4/5 413/4/5 426/4/5
f 431/4/5 428/4/5 427/4/5
f 434/4/5 430/4/5 429/4/5
f 435/4/5 432/4/5 431/4/5
f 436/4/5 434/4/5 433/4/5
f 437/4/5 435/4/5 431/4/5
f 437/4/5 436/4/5 435/4/5
f 437/4/5 427/4/5 412/4/5
f 437/4/5 431/4/5 427/4/5
f 438/4/5 434/4/5 436/4/5
f 438/4/5 436/4/5 437/4/5
f 438/4/5 413/4/5 430/4/5
f 438/4/5 430/4/5 434/4/5
f 439/3/6 440/3/6 441/3/6
f 441/3/6 440/3/6 442/3/6
f 441/3/6 442/3/6 443/3/6
f 443/3/6 442/3/6 444/3/6
f 445/3/6 446/3/6 448/3/6
f 446/3/6 447/3/6 448/3/6
f 448/3/6 447/3/6 449/3/6
f 449/3/6 447/3/6 450/3/6
f 452/3/6 453/3/6 457/3/6
f 451/3/6 452/3/6 457/3/6
f 457/3/6 453/3/6 458/3/6
f 458/3/6 453/3/6 459/3/6
f 455/3/6 456/3/6 460/3/6
f 454/3/6 455/3/6 460/3/6
f 460/3/6 456/3/6 461/3/6
f 461/3/6 456/3/6 462/3/6
f 463/3/6 464/3/6 467/3/6
f 467/3/6 464/3/6 468/3/6
f 465/3/6 466/3/6 469/3/6
f 469/3/6 466/3/6 470/3/6
f 467/3/6 468/3/6 471/3/6
f 471/3/6 468/3/6 472/3/6
f 469/3/6 470/3/6 473/3/6
f 473/3/6 470/3/6 474/3/6
f 475/4/6 476/4/6 477/4/6
f 477/4/6 476/4/6 478/4/6
f 475/4/6 477/4/6 479/4/6
f 477/1/6 478/1/6 479/1/6
f 478/4/6 476/4/6 480/4/6
f 479/1/6 478/1/6 480/1/6
f 475/4/6 479/4/6 481/4/6
f 479/4/6 480/4/6 481/4/6
f 480/4/6 476/4/6 482/4/6
f 481/4/6 480/4/6 482/4/6
